<mxfile host="Electron" agent="Mozilla/5.0 (Windows NT 10.0; Win64; x64) AppleWebKit/537.36 (KHTML, like Gecko) draw.io/25.0.2 Chrome/128.0.6613.186 Electron/32.2.5 Safari/537.36" version="25.0.2">
  <diagram id="readFontFile" name="readFontFile">
    <mxGraphModel dx="1050" dy="-452" grid="1" gridSize="10" guides="1" tooltips="1" connect="1" arrows="1" fold="1" page="1" pageScale="1" pageWidth="827" pageHeight="1169" math="0" shadow="0">
      <root>
        <mxCell id="0" />
        <mxCell id="1" parent="0" />
        <mxCell id="29" value="" style="endArrow=classic;html=1;exitX=0;exitY=0.5;entryX=0;entryY=0.5;fontColor=#FFFFFF;" parent="1" edge="1">
          <mxGeometry width="50" height="50" relative="1" as="geometry">
            <Array as="points">
              <mxPoint x="100" y="760" />
              <mxPoint x="100" y="630" />
            </Array>
            <mxPoint x="180" y="789.9999999999998" as="targetPoint" />
          </mxGeometry>
        </mxCell>
        <mxCell id="33_n0GsjHKrFexk1TpIo-29" value="&lt;p class=&quot;MsoNormal&quot;&gt;&lt;b&gt;&lt;span style=&quot;line-height: 110%;&quot;&gt;&lt;font style=&quot;font-size: 15px;&quot;&gt;float calculateWordWidth(const char* word, struct FontData* font, float height)&lt;/font&gt;&lt;span style=&quot;color: rgb(68, 114, 196); font-size: 12pt;&quot;&gt;&lt;/span&gt;&lt;/span&gt;&lt;/b&gt;&lt;/p&gt;" style="swimlane;whiteSpace=wrap;html=1;fillColor=#b0e3e6;strokeColor=#0e8088;" parent="1" vertex="1">
          <mxGeometry x="68" y="1230" width="691" height="756" as="geometry" />
        </mxCell>
        <mxCell id="33_n0GsjHKrFexk1TpIo-30" style="edgeStyle=orthogonalEdgeStyle;rounded=0;orthogonalLoop=1;jettySize=auto;html=1;exitX=1;exitY=0.5;exitDx=0;exitDy=0;" parent="33_n0GsjHKrFexk1TpIo-29" source="33_n0GsjHKrFexk1TpIo-32" target="33_n0GsjHKrFexk1TpIo-33" edge="1">
          <mxGeometry relative="1" as="geometry" />
        </mxCell>
        <mxCell id="33_n0GsjHKrFexk1TpIo-31" value="INVALID" style="edgeLabel;html=1;align=center;verticalAlign=middle;resizable=0;points=[];" parent="33_n0GsjHKrFexk1TpIo-30" vertex="1" connectable="0">
          <mxGeometry x="-0.1526" y="-1" relative="1" as="geometry">
            <mxPoint as="offset" />
          </mxGeometry>
        </mxCell>
        <mxCell id="33_n0GsjHKrFexk1TpIo-32" value="Valid Parameters?" style="rhombus;whiteSpace=wrap;html=1;rounded=1;" parent="33_n0GsjHKrFexk1TpIo-29" vertex="1">
          <mxGeometry x="7.6699999999999875" y="23" width="148.83" height="80" as="geometry" />
        </mxCell>
        <mxCell id="33_n0GsjHKrFexk1TpIo-33" value="printf([ERROR] Invalid parameters in calculateWordWidth)" style="rounded=1;whiteSpace=wrap;html=1;fillColor=#f5f5f5;strokeColor=#666666;fontColor=#333333;" parent="33_n0GsjHKrFexk1TpIo-29" vertex="1">
          <mxGeometry x="239" y="49" width="322" height="27" as="geometry" />
        </mxCell>
        <mxCell id="33_n0GsjHKrFexk1TpIo-34" value="Return EXIT_FAILURE" style="whiteSpace=wrap;html=1;fillColor=#f8cecc;strokeColor=#b85450;rounded=1;" parent="33_n0GsjHKrFexk1TpIo-29" vertex="1">
          <mxGeometry x="586" y="40.25" width="97" height="44.5" as="geometry" />
        </mxCell>
        <mxCell id="33_n0GsjHKrFexk1TpIo-35" value="" style="edgeStyle=orthogonalEdgeStyle;rounded=0;orthogonalLoop=1;jettySize=auto;html=1;exitX=1;exitY=0.5;exitDx=0;exitDy=0;" parent="33_n0GsjHKrFexk1TpIo-29" source="33_n0GsjHKrFexk1TpIo-33" target="33_n0GsjHKrFexk1TpIo-34" edge="1">
          <mxGeometry relative="1" as="geometry">
            <mxPoint x="374.51724137931024" y="73.99999999999955" as="sourcePoint" />
          </mxGeometry>
        </mxCell>
        <mxCell id="33_n0GsjHKrFexk1TpIo-36" value="&lt;div style=&quot;color: rgb(204, 204, 204); background-color: rgb(31, 31, 31); font-family: Consolas, &amp;quot;Courier New&amp;quot;, monospace; font-size: 14px; line-height: 19px; white-space-collapse: preserve;&quot;&gt;&lt;span style=&quot;color: #c586c0;&quot;&gt;if&lt;/span&gt; (&lt;span style=&quot;color: #d4d4d4;&quot;&gt;!&lt;/span&gt;&lt;span style=&quot;color: #9cdcfe;&quot;&gt;word&lt;/span&gt; &lt;span style=&quot;color: #d4d4d4;&quot;&gt;||&lt;/span&gt; &lt;span style=&quot;color: #d4d4d4;&quot;&gt;!&lt;/span&gt;&lt;span style=&quot;color: #9cdcfe;&quot;&gt;font&lt;/span&gt;)&lt;/div&gt;" style="text;html=1;align=center;verticalAlign=middle;resizable=0;points=[];autosize=1;strokeColor=none;fillColor=none;" parent="33_n0GsjHKrFexk1TpIo-29" vertex="1">
          <mxGeometry x="7.6699999999999875" y="79" width="164" height="31" as="geometry" />
        </mxCell>
        <mxCell id="33_n0GsjHKrFexk1TpIo-37" style="edgeStyle=orthogonalEdgeStyle;rounded=0;orthogonalLoop=1;jettySize=auto;html=1;exitX=1;exitY=0.5;exitDx=0;exitDy=0;entryX=0;entryY=0.5;entryDx=0;entryDy=0;" parent="33_n0GsjHKrFexk1TpIo-29" source="33_n0GsjHKrFexk1TpIo-38" target="33_n0GsjHKrFexk1TpIo-45" edge="1">
          <mxGeometry relative="1" as="geometry">
            <mxPoint x="246.07000000000005" y="342.8000000000002" as="targetPoint" />
          </mxGeometry>
        </mxCell>
        <mxCell id="33_n0GsjHKrFexk1TpIo-38" value="Calculate Scale Factor" style="whiteSpace=wrap;html=1;rounded=1;" parent="33_n0GsjHKrFexk1TpIo-29" vertex="1">
          <mxGeometry x="16.12" y="304" width="131.92" height="36" as="geometry" />
        </mxCell>
        <mxCell id="33_n0GsjHKrFexk1TpIo-39" style="edgeStyle=orthogonalEdgeStyle;rounded=0;orthogonalLoop=1;jettySize=auto;html=1;exitX=0.5;exitY=1;exitDx=0;exitDy=0;entryX=0.5;entryY=0;entryDx=0;entryDy=0;" parent="33_n0GsjHKrFexk1TpIo-29" source="33_n0GsjHKrFexk1TpIo-41" target="33_n0GsjHKrFexk1TpIo-67" edge="1">
          <mxGeometry relative="1" as="geometry">
            <mxPoint x="389.62068965517255" y="661.7241379310344" as="targetPoint" />
          </mxGeometry>
        </mxCell>
        <mxCell id="33_n0GsjHKrFexk1TpIo-40" value="for (int j = 1; ... { if (x &amp;gt; maxX) maxX = x; }" style="edgeLabel;html=1;align=center;verticalAlign=middle;resizable=0;points=[];" parent="33_n0GsjHKrFexk1TpIo-39" vertex="1" connectable="0">
          <mxGeometry x="-0.3763" relative="1" as="geometry">
            <mxPoint as="offset" />
          </mxGeometry>
        </mxCell>
        <mxCell id="33_n0GsjHKrFexk1TpIo-41" value="Find Max X-Coordinate" style="rounded=1;whiteSpace=wrap;html=1;" parent="33_n0GsjHKrFexk1TpIo-29" vertex="1">
          <mxGeometry x="346.4" y="569" width="87" height="34" as="geometry" />
        </mxCell>
        <mxCell id="33_n0GsjHKrFexk1TpIo-42" style="edgeStyle=orthogonalEdgeStyle;rounded=0;orthogonalLoop=1;jettySize=auto;html=1;exitX=0.5;exitY=1;exitDx=0;exitDy=0;entryX=0.5;entryY=0;entryDx=0;entryDy=0;" parent="33_n0GsjHKrFexk1TpIo-29" source="33_n0GsjHKrFexk1TpIo-60" target="33_n0GsjHKrFexk1TpIo-41" edge="1">
          <mxGeometry relative="1" as="geometry" />
        </mxCell>
        <mxCell id="33_n0GsjHKrFexk1TpIo-43" value="Get ASCII Value" style="rounded=1;whiteSpace=wrap;html=1;" parent="33_n0GsjHKrFexk1TpIo-29" vertex="1">
          <mxGeometry x="347.76" y="366" width="87" height="34" as="geometry" />
        </mxCell>
        <mxCell id="33_n0GsjHKrFexk1TpIo-44" style="edgeStyle=orthogonalEdgeStyle;rounded=0;orthogonalLoop=1;jettySize=auto;html=1;exitX=1;exitY=0.5;exitDx=0;exitDy=0;" parent="33_n0GsjHKrFexk1TpIo-29" source="33_n0GsjHKrFexk1TpIo-65" target="33_n0GsjHKrFexk1TpIo-43" edge="1">
          <mxGeometry relative="1" as="geometry" />
        </mxCell>
        <mxCell id="33_n0GsjHKrFexk1TpIo-45" value="Process Word Characters Loop start&lt;br&gt;while (word[i] != &#39;\0&#39;)" style="rounded=1;whiteSpace=wrap;html=1;" parent="33_n0GsjHKrFexk1TpIo-29" vertex="1">
          <mxGeometry x="171.67" y="296.75" width="127" height="50.5" as="geometry" />
        </mxCell>
        <mxCell id="33_n0GsjHKrFexk1TpIo-46" style="edgeStyle=orthogonalEdgeStyle;rounded=0;orthogonalLoop=1;jettySize=auto;html=1;exitX=1;exitY=0.5;exitDx=0;exitDy=0;" parent="33_n0GsjHKrFexk1TpIo-29" source="33_n0GsjHKrFexk1TpIo-48" target="33_n0GsjHKrFexk1TpIo-49" edge="1">
          <mxGeometry relative="1" as="geometry" />
        </mxCell>
        <mxCell id="33_n0GsjHKrFexk1TpIo-47" value="INVALID" style="edgeLabel;html=1;align=center;verticalAlign=middle;resizable=0;points=[];" parent="33_n0GsjHKrFexk1TpIo-46" vertex="1" connectable="0">
          <mxGeometry x="-0.1526" y="-1" relative="1" as="geometry">
            <mxPoint as="offset" />
          </mxGeometry>
        </mxCell>
        <mxCell id="33_n0GsjHKrFexk1TpIo-48" value="Valid height?" style="rhombus;whiteSpace=wrap;html=1;rounded=1;" parent="33_n0GsjHKrFexk1TpIo-29" vertex="1">
          <mxGeometry x="10" y="119.75" width="148.83" height="45" as="geometry" />
        </mxCell>
        <mxCell id="33_n0GsjHKrFexk1TpIo-49" value="printf(Error: Height %.2f outisde valid range)" style="rounded=1;whiteSpace=wrap;html=1;fillColor=#f5f5f5;strokeColor=#666666;fontColor=#333333;" parent="33_n0GsjHKrFexk1TpIo-29" vertex="1">
          <mxGeometry x="239" y="129" width="322" height="27" as="geometry" />
        </mxCell>
        <mxCell id="33_n0GsjHKrFexk1TpIo-50" value="Return EXIT_FAILURE" style="whiteSpace=wrap;html=1;fillColor=#f8cecc;strokeColor=#b85450;rounded=1;" parent="33_n0GsjHKrFexk1TpIo-29" vertex="1">
          <mxGeometry x="586" y="120.25" width="97" height="44.5" as="geometry" />
        </mxCell>
        <mxCell id="33_n0GsjHKrFexk1TpIo-51" value="" style="edgeStyle=orthogonalEdgeStyle;rounded=0;orthogonalLoop=1;jettySize=auto;html=1;exitX=1;exitY=0.5;exitDx=0;exitDy=0;" parent="33_n0GsjHKrFexk1TpIo-29" source="33_n0GsjHKrFexk1TpIo-49" target="33_n0GsjHKrFexk1TpIo-50" edge="1">
          <mxGeometry relative="1" as="geometry">
            <mxPoint x="374.51724137931024" y="153.99999999999955" as="sourcePoint" />
          </mxGeometry>
        </mxCell>
        <mxCell id="33_n0GsjHKrFexk1TpIo-52" style="edgeStyle=orthogonalEdgeStyle;rounded=0;orthogonalLoop=1;jettySize=auto;html=1;exitX=0.5;exitY=1;exitDx=0;exitDy=0;" parent="33_n0GsjHKrFexk1TpIo-29" source="33_n0GsjHKrFexk1TpIo-48" target="33_n0GsjHKrFexk1TpIo-38" edge="1">
          <mxGeometry relative="1" as="geometry">
            <mxPoint x="83.2672799999998" y="229.34000000000015" as="targetPoint" />
          </mxGeometry>
        </mxCell>
        <mxCell id="33_n0GsjHKrFexk1TpIo-53" style="edgeStyle=orthogonalEdgeStyle;rounded=0;orthogonalLoop=1;jettySize=auto;html=1;exitX=0.5;exitY=1;exitDx=0;exitDy=0;entryX=0.501;entryY=0.04;entryDx=0;entryDy=0;entryPerimeter=0;" parent="33_n0GsjHKrFexk1TpIo-29" source="33_n0GsjHKrFexk1TpIo-32" target="33_n0GsjHKrFexk1TpIo-48" edge="1">
          <mxGeometry relative="1" as="geometry" />
        </mxCell>
        <mxCell id="33_n0GsjHKrFexk1TpIo-54" value="&lt;br&gt;&lt;div style=&quot;color: rgb(204, 204, 204); background-color: rgb(31, 31, 31); font-family: Consolas, &amp;quot;Courier New&amp;quot;, monospace; font-weight: normal; line-height: 19px; white-space: pre;&quot;&gt;&lt;div style=&quot;&quot;&gt;&lt;font style=&quot;font-size: 9px;&quot;&gt;&lt;span style=&quot;color: rgb(197, 134, 192);&quot;&gt;if&lt;/span&gt;&lt;span style=&quot;color: rgb(204, 204, 204);&quot;&gt; (&lt;/span&gt;&lt;span style=&quot;color: rgb(156, 220, 254);&quot;&gt;height&lt;/span&gt;&lt;span style=&quot;color: rgb(204, 204, 204);&quot;&gt; &lt;/span&gt;&lt;span style=&quot;color: rgb(212, 212, 212);&quot;&gt;&amp;lt;&lt;/span&gt;&lt;span style=&quot;color: rgb(204, 204, 204);&quot;&gt; &lt;/span&gt;&lt;span style=&quot;color: rgb(86, 156, 214);&quot;&gt;MIN_HEIGHT&lt;/span&gt;&lt;span style=&quot;color: rgb(204, 204, 204);&quot;&gt; &lt;/span&gt;&lt;span style=&quot;color: rgb(212, 212, 212);&quot;&gt;||&lt;/span&gt;&lt;span style=&quot;color: rgb(204, 204, 204);&quot;&gt; &lt;/span&gt;&lt;span style=&quot;color: rgb(156, 220, 254);&quot;&gt;height&lt;/span&gt;&lt;span style=&quot;color: rgb(204, 204, 204);&quot;&gt; &lt;/span&gt;&lt;span style=&quot;color: rgb(212, 212, 212);&quot;&gt;&amp;gt;&lt;/span&gt;&lt;span style=&quot;color: rgb(204, 204, 204);&quot;&gt; &lt;/span&gt;&lt;span style=&quot;color: rgb(86, 156, 214);&quot;&gt;MAX_HEIGHT&lt;/span&gt;&lt;span style=&quot;color: rgb(204, 204, 204);&quot;&gt;)&lt;/span&gt;&lt;/font&gt;&lt;/div&gt;&lt;/div&gt;&lt;div&gt;&lt;br/&gt;&lt;/div&gt;" style="text;html=1;align=center;verticalAlign=middle;resizable=0;points=[];autosize=1;strokeColor=none;fillColor=none;" parent="33_n0GsjHKrFexk1TpIo-29" vertex="1">
          <mxGeometry y="152" width="251" height="61" as="geometry" />
        </mxCell>
        <mxCell id="33_n0GsjHKrFexk1TpIo-55" value="Retrieve Character Data" style="rounded=1;whiteSpace=wrap;html=1;" parent="33_n0GsjHKrFexk1TpIo-29" vertex="1">
          <mxGeometry x="346.4" y="437" width="87" height="34" as="geometry" />
        </mxCell>
        <mxCell id="33_n0GsjHKrFexk1TpIo-56" value="" style="edgeStyle=orthogonalEdgeStyle;rounded=0;orthogonalLoop=1;jettySize=auto;html=1;exitX=0.5;exitY=1;exitDx=0;exitDy=0;entryX=0.5;entryY=0;entryDx=0;entryDy=0;" parent="33_n0GsjHKrFexk1TpIo-29" source="33_n0GsjHKrFexk1TpIo-43" target="33_n0GsjHKrFexk1TpIo-55" edge="1">
          <mxGeometry relative="1" as="geometry">
            <mxPoint x="463.27" y="2824" as="sourcePoint" />
            <mxPoint x="462.27" y="2936" as="targetPoint" />
          </mxGeometry>
        </mxCell>
        <mxCell id="33_n0GsjHKrFexk1TpIo-57" value="int ascii = (int)word[i];" style="edgeLabel;html=1;align=center;verticalAlign=middle;resizable=0;points=[];" parent="33_n0GsjHKrFexk1TpIo-56" vertex="1" connectable="0">
          <mxGeometry x="-0.2796" relative="1" as="geometry">
            <mxPoint as="offset" />
          </mxGeometry>
        </mxCell>
        <mxCell id="33_n0GsjHKrFexk1TpIo-58" style="edgeStyle=orthogonalEdgeStyle;rounded=0;orthogonalLoop=1;jettySize=auto;html=1;exitX=1;exitY=0.5;exitDx=0;exitDy=0;" parent="33_n0GsjHKrFexk1TpIo-29" source="33_n0GsjHKrFexk1TpIo-60" target="33_n0GsjHKrFexk1TpIo-63" edge="1">
          <mxGeometry relative="1" as="geometry">
            <mxPoint x="581" y="380" as="targetPoint" />
          </mxGeometry>
        </mxCell>
        <mxCell id="33_n0GsjHKrFexk1TpIo-59" value="INVALID" style="edgeLabel;html=1;align=center;verticalAlign=middle;resizable=0;points=[];" parent="33_n0GsjHKrFexk1TpIo-58" vertex="1" connectable="0">
          <mxGeometry x="-0.0586" y="-1" relative="1" as="geometry">
            <mxPoint as="offset" />
          </mxGeometry>
        </mxCell>
        <mxCell id="33_n0GsjHKrFexk1TpIo-60" value="Validate Character Strokes" style="rhombus;whiteSpace=wrap;html=1;rounded=1;" parent="33_n0GsjHKrFexk1TpIo-29" vertex="1">
          <mxGeometry x="268.99999999999994" y="504" width="241.79" height="45" as="geometry" />
        </mxCell>
        <mxCell id="33_n0GsjHKrFexk1TpIo-61" value="" style="edgeStyle=orthogonalEdgeStyle;rounded=0;orthogonalLoop=1;jettySize=auto;html=1;exitX=0.5;exitY=1;exitDx=0;exitDy=0;entryX=0.5;entryY=0;entryDx=0;entryDy=0;" parent="33_n0GsjHKrFexk1TpIo-29" source="33_n0GsjHKrFexk1TpIo-55" target="33_n0GsjHKrFexk1TpIo-60" edge="1">
          <mxGeometry relative="1" as="geometry">
            <mxPoint x="464.27" y="2908" as="sourcePoint" />
            <mxPoint x="464.27" y="2983" as="targetPoint" />
          </mxGeometry>
        </mxCell>
        <mxCell id="33_n0GsjHKrFexk1TpIo-62" value="struct CharacterData* charData = &amp;amp;font-&amp;gt;characters[ascii];" style="edgeLabel;html=1;align=center;verticalAlign=middle;resizable=0;points=[];" parent="33_n0GsjHKrFexk1TpIo-61" vertex="1" connectable="0">
          <mxGeometry x="-0.2037" y="-1" relative="1" as="geometry">
            <mxPoint as="offset" />
          </mxGeometry>
        </mxCell>
        <mxCell id="33_n0GsjHKrFexk1TpIo-77" style="edgeStyle=orthogonalEdgeStyle;rounded=0;orthogonalLoop=1;jettySize=auto;html=1;exitX=0;exitY=0.5;exitDx=0;exitDy=0;entryX=0.5;entryY=1;entryDx=0;entryDy=0;" parent="33_n0GsjHKrFexk1TpIo-29" source="33_n0GsjHKrFexk1TpIo-63" target="33_n0GsjHKrFexk1TpIo-71" edge="1">
          <mxGeometry relative="1" as="geometry" />
        </mxCell>
        <mxCell id="33_n0GsjHKrFexk1TpIo-78" value="skip character, increment i and continue" style="edgeLabel;html=1;align=center;verticalAlign=middle;resizable=0;points=[];" parent="33_n0GsjHKrFexk1TpIo-77" vertex="1" connectable="0">
          <mxGeometry x="-0.2301" y="1" relative="1" as="geometry">
            <mxPoint x="1" as="offset" />
          </mxGeometry>
        </mxCell>
        <mxCell id="33_n0GsjHKrFexk1TpIo-63" value="[WARNING] No strokes data for character" style="rounded=1;whiteSpace=wrap;html=1;fillColor=#f5f5f5;strokeColor=#ff0000;fontColor=#333333;" parent="33_n0GsjHKrFexk1TpIo-29" vertex="1">
          <mxGeometry x="501" y="701" width="164" height="47" as="geometry" />
        </mxCell>
        <mxCell id="33_n0GsjHKrFexk1TpIo-64" value="" style="edgeStyle=orthogonalEdgeStyle;rounded=0;orthogonalLoop=1;jettySize=auto;html=1;exitX=0.5;exitY=1;exitDx=0;exitDy=0;entryX=0.5;entryY=0;entryDx=0;entryDy=0;" parent="33_n0GsjHKrFexk1TpIo-29" source="33_n0GsjHKrFexk1TpIo-45" target="33_n0GsjHKrFexk1TpIo-65" edge="1">
          <mxGeometry relative="1" as="geometry">
            <mxPoint x="384" y="2736" as="sourcePoint" />
            <mxPoint x="422" y="2813" as="targetPoint" />
          </mxGeometry>
        </mxCell>
        <mxCell id="33_n0GsjHKrFexk1TpIo-65" value="Read Next Char" style="rounded=1;whiteSpace=wrap;html=1;" parent="33_n0GsjHKrFexk1TpIo-29" vertex="1">
          <mxGeometry x="196.99999999999997" y="366" width="95.23" height="34" as="geometry" />
        </mxCell>
        <mxCell id="33_n0GsjHKrFexk1TpIo-66" value="totalWidth += maxX * scaleFactor;" style="edgeStyle=orthogonalEdgeStyle;rounded=0;orthogonalLoop=1;jettySize=auto;html=1;exitX=0;exitY=0.5;exitDx=0;exitDy=0;entryX=0.5;entryY=1;entryDx=0;entryDy=0;" parent="33_n0GsjHKrFexk1TpIo-29" source="33_n0GsjHKrFexk1TpIo-67" target="33_n0GsjHKrFexk1TpIo-71" edge="1">
          <mxGeometry x="-0.12" y="14" relative="1" as="geometry">
            <mxPoint x="151.68965517241372" y="673.1034482758623" as="targetPoint" />
            <mxPoint as="offset" />
          </mxGeometry>
        </mxCell>
        <mxCell id="33_n0GsjHKrFexk1TpIo-67" value="Update Word Total Width" style="rounded=1;whiteSpace=wrap;html=1;" parent="33_n0GsjHKrFexk1TpIo-29" vertex="1">
          <mxGeometry x="346.4" y="656" width="87" height="34" as="geometry" />
        </mxCell>
        <mxCell id="33_n0GsjHKrFexk1TpIo-68" style="edgeStyle=orthogonalEdgeStyle;rounded=0;orthogonalLoop=1;jettySize=auto;html=1;exitX=0.5;exitY=0;exitDx=0;exitDy=0;entryX=0.5;entryY=1;entryDx=0;entryDy=0;" parent="33_n0GsjHKrFexk1TpIo-29" source="33_n0GsjHKrFexk1TpIo-73" target="33_n0GsjHKrFexk1TpIo-65" edge="1">
          <mxGeometry relative="1" as="geometry">
            <mxPoint x="232.0344827586207" y="412.7586206896549" as="targetPoint" />
          </mxGeometry>
        </mxCell>
        <mxCell id="33_n0GsjHKrFexk1TpIo-69" value="while (word[i] != &#39;\0&#39;) { ... }" style="edgeLabel;html=1;align=center;verticalAlign=middle;resizable=0;points=[];" parent="33_n0GsjHKrFexk1TpIo-68" vertex="1" connectable="0">
          <mxGeometry x="-0.6247" y="2" relative="1" as="geometry">
            <mxPoint x="3" y="10" as="offset" />
          </mxGeometry>
        </mxCell>
        <mxCell id="33_n0GsjHKrFexk1TpIo-70" value="more characters!" style="edgeLabel;html=1;align=center;verticalAlign=middle;resizable=0;points=[];" parent="33_n0GsjHKrFexk1TpIo-68" vertex="1" connectable="0">
          <mxGeometry x="-0.0201" y="-2" relative="1" as="geometry">
            <mxPoint x="44" y="-20" as="offset" />
          </mxGeometry>
        </mxCell>
        <mxCell id="33_n0GsjHKrFexk1TpIo-71" value="Increment Character Index" style="rounded=1;whiteSpace=wrap;html=1;" parent="33_n0GsjHKrFexk1TpIo-29" vertex="1">
          <mxGeometry x="125" y="592" width="87" height="58" as="geometry" />
        </mxCell>
        <mxCell id="33_n0GsjHKrFexk1TpIo-72" style="edgeStyle=orthogonalEdgeStyle;rounded=0;orthogonalLoop=1;jettySize=auto;html=1;exitX=0;exitY=0.5;exitDx=0;exitDy=0;" parent="33_n0GsjHKrFexk1TpIo-29" source="33_n0GsjHKrFexk1TpIo-73" target="33_n0GsjHKrFexk1TpIo-76" edge="1">
          <mxGeometry relative="1" as="geometry">
            <mxPoint x="52.41666666666674" y="665.416666666667" as="targetPoint" />
          </mxGeometry>
        </mxCell>
        <mxCell id="33_n0GsjHKrFexk1TpIo-73" value="End of Word Check" style="rounded=1;whiteSpace=wrap;html=1;" parent="33_n0GsjHKrFexk1TpIo-29" vertex="1">
          <mxGeometry x="125" y="486" width="87" height="58" as="geometry" />
        </mxCell>
        <mxCell id="33_n0GsjHKrFexk1TpIo-74" value="" style="edgeStyle=orthogonalEdgeStyle;rounded=0;orthogonalLoop=1;jettySize=auto;html=1;exitX=0.5;exitY=0;exitDx=0;exitDy=0;entryX=0.5;entryY=1;entryDx=0;entryDy=0;" parent="33_n0GsjHKrFexk1TpIo-29" source="33_n0GsjHKrFexk1TpIo-71" target="33_n0GsjHKrFexk1TpIo-73" edge="1">
          <mxGeometry relative="1" as="geometry">
            <mxPoint x="317" y="2812" as="targetPoint" />
            <mxPoint x="241" y="3004" as="sourcePoint" />
          </mxGeometry>
        </mxCell>
        <mxCell id="33_n0GsjHKrFexk1TpIo-75" value="i++;" style="edgeLabel;html=1;align=center;verticalAlign=middle;resizable=0;points=[];" parent="33_n0GsjHKrFexk1TpIo-74" vertex="1" connectable="0">
          <mxGeometry x="-0.0859" relative="1" as="geometry">
            <mxPoint x="3" y="5" as="offset" />
          </mxGeometry>
        </mxCell>
        <mxCell id="33_n0GsjHKrFexk1TpIo-76" value="&lt;b&gt;Return Total Word Width&lt;/b&gt;" style="rounded=1;whiteSpace=wrap;html=1;fillColor=#dae8fc;strokeColor=#6c8ebf;" parent="33_n0GsjHKrFexk1TpIo-29" vertex="1">
          <mxGeometry x="23" y="681" width="87" height="58" as="geometry" />
        </mxCell>
      </root>
    </mxGraphModel>
  </diagram>
</mxfile>
